#!OML:ASF I:\golf\golf\golf 2\Subject 1\2002-09-07\Subject1.ASF
:FULLY-SPECIFIED
:DEGREES
289
root -1.53484 15.9593 -3.16926 105.815 31.597 37.4806
lowerback 0.055475 1.52812 9.64327
upperback 8.16602 1.26543 10.5906
thorax 8.72309 0.915487 6.15575
lowerneck -12.2146 -11.0786 -0.834146
upperneck -1.8277 -14.9662 0.437922
head 1.53272 -7.59598 -0.475616
rclavicle -6.36111e-014 -1.08139e-013
rhumerus 55.9661 -22.0596 -44.9499
rradius 22.1736
rwrist 0.242376
rhand -43.0022 21.2779
rfingers 7.12502
rthumb -15.8605 -8.09246
lclavicle -6.36111e-014 -1.08139e-013
lhumerus -36.5885 -39.5725 107.677
lradius 78.8253
lwrist -0.961397
lhand -43.541 25.6443
lfingers 7.12502
lthumb -16.3793 54.9727
rfemur -131.25 -26.0542 26.049
rtibia 58.5479
rfoot -9.74891 -6.71033
rtoes 13.1131
lfemur -100.842 -16.2522 -12.5687
ltibia 31.6637
lfoot 0.934154 -27.278
ltoes 10.4747
290
root -1.53186 15.9513 -3.16296 106.011 31.5203 37.5853
lowerback -0.0984851 1.53489 9.61816
upperback 8.14964 1.25093 10.6229
thorax 8.79581 0.905369 6.21289
lowerneck -12.064 -11.1225 -0.874452
upperneck -2.11421 -15.0295 0.432514
head 1.41432 -7.63275 -0.451191
rclavicle -5.40694e-014 -2.70347e-014
rhumerus 55.7502 -22.0313 -44.6249
rradius 22.4242
rwrist 0.113295
rhand -43.0593 21.5398
rfingers 7.12502
rthumb -15.9155 -7.82624
lclavicle -5.40694e-014 -2.70347e-014
lhumerus -36.6172 -39.5308 107.71
lradius 79.0248
lwrist -0.921169
lhand -43.4444 25.6068
lfingers 7.12502
lthumb -16.2863 54.9429
rfemur -131.42 -26.135 26.0118
rtibia 58.6292
rfoot -9.76723 -6.83711
rtoes 13.1459
lfemur -101.042 -16.3265 -12.4009
ltibia 31.6673
lfoot 1.11273 -27.3015
ltoes 10.8489
291
root -1.53011 15.944 -3.15682 106.205 31.4899 37.6648
lowerback -0.271279 1.57233 9.60578
upperback 8.09803 1.27664 10.671
thorax 8.83916 0.91413 6.28171
lowerneck -11.8736 -11.1709 -0.996587
upperneck -2.26823 -15.0843 0.479431
head 1.34416 -7.66067 -0.402839
rclavicle -1.59028e-014 1.89243e-013
rhumerus 55.3331 -21.9222 -44.0515
rradius 22.7807
rwrist -0.278284
rhand -43.2008 21.754
rfingers 7.12502
rthumb -16.0517 -7.6011
lclavicle -1.59028e-014 1.89243e-013
lhumerus -36.7145 -39.569 107.799
lradius 79.2001
lwrist -0.743183
lhand -43.3747 25.4824
lfingers 7.12502
lthumb -16.2192 54.824
rfemur -131.523 -26.2013 25.874
rtibia 58.6962
rfoot -9.79214 -7.06259
rtoes 13.0543
lfemur -101.252 -16.3586 -12.2406
ltibia 31.67
lfoot 1.50125 -27.2458
ltoes 12.0734
292
root -1.52798 15.9378 -3.15143 106.384 31.4578 37.7534
lowerback -0.429493 1.60056 9.61432
upperback 8.06147 1.29031 10.6955
thorax 8.8922 0.919855 6.31213
lowerneck -11.7811 -11.1842 -1.11429
upperneck -2.28809 -15.0879 0.544949
head 1.33642 -7.66028 -0.360066
rclavicle 3.18055e-014 0
rhumerus 55.0789 -21.919 -43.7973
rradius 23.0617
rwrist -0.398406
rhand -43.2864 21.8259
rfingers 7.12502
rthumb -16.1342 -7.5225
lclavicle 3.18055e-014 0
lhumerus -36.7443 -39.6321 107.859
lradius 79.2629
lwrist -0.642908
lhand -43.363 25.642
lfingers 7.12502
lthumb -16.2079 54.9845
rfemur -131.664 -26.262 25.8291
rtibia 58.7548
rfoot -9.74548 -7.19822
rtoes 13.0707
lfemur -101.446 -16.417 -12.0649
ltibia 31.6651
lfoot 1.5578 -27.178
ltoes 11.9843
293
root -1.52581 15.9336 -3.14767 106.581 31.376 37.8314
lowerback -0.583839 1.61486 9.58619
upperback 8.01502 1.28942 10.6938
thorax 8.93074 0.916906 6.33089
lowerneck -11.7217 -11.1873 -1.1978
upperneck -2.30812 -15.0822 0.616209
head 1.33215 -7.65541 -0.322272
rclavicle -8.26944e-014 -3.65764e-014
rhumerus 54.905 -21.9069 -43.6429
rradius 23.2682
rwrist -0.414323
rhand -43.4326 21.8987
rfingers 7.12502
rthumb -16.2749 -7.43828
lclavicle -8.26944e-014 -3.65764e-014
lhumerus -36.6971 -39.5984 107.867
lradius 79.2083
lwrist -0.650217
lhand -43.3091 25.6987
lfingers 7.12502
lthumb -16.156 55.0453
rfemur -131.841 -26.3258 25.7572
rtibia 58.7985
rfoot -9.74895 -7.31871
rtoes 13.7162
lfemur -101.649 -16.4848 -12.0105
ltibia 31.6706
lfoot 1.70709 -27.1686
ltoes 11.9402
294
root -1.52421 15.9291 -3.14756 106.832 31.2691 37.8782
lowerback -0.855235 1.65975 9.51474
upperback 7.96248 1.31117 10.6917
thorax 9.0299 0.921467 6.38202
lowerneck -11.6394 -11.2099 -1.21282
upperneck -2.41352 -15.1148 0.62807
head 1.2856 -7.6732 -0.307986
rclavicle 6.36111e-014 -3.65764e-014
rhumerus 54.6015 -21.8139 -43.1222
rradius 23.4826
rwrist -0.790153
rhand -43.7073 22.1052
rfingers 7.12502
rthumb -16.5395 -7.20988
lclavicle 6.36111e-014 -3.65764e-014
lhumerus -36.5541 -39.5162 107.867
lradius 78.9806
lwrist -0.713113
lhand -43.2645 25.2675
lfingers 7.12502
lthumb -16.113 54.6176
rfemur -132.002 -26.4016 25.5162
rtibia 58.8186
rfoot -9.84928 -7.57179
rtoes 14.2905
lfemur -101.912 -16.5173 -12.0441
ltibia 31.6962
lfoot 2.03193 -27.2196
ltoes 12.0462
295
root -1.52337 15.9225 -3.14921 107.087 31.168 37.9126
lowerback -1.1567 1.68763 9.43915
upperback 7.9237 1.30469 10.6821
thorax 9.16378 0.912645 6.42823
lowerneck -11.6053 -11.2029 -1.19143
upperneck -2.53793 -15.1122 0.609084
head 1.23556 -7.67449 -0.308485
rclavicle -8.90555e-014 8.11041e-014
rhumerus 54.3666 -21.7065 -42.6649
rradius 23.6877
rwrist -1.21246
rhand -43.824 22.3417
rfingers 7.12502
rthumb -16.6518 -6.96399
lclavicle -8.90555e-014 8.11041e-014
lhumerus -36.4329 -39.3757 107.823
lradius 78.7818
lwrist -0.792642
lhand -43.3118 24.8553
lfingers 7.12502
lthumb -16.1586 54.2017
rfemur -132.166 -26.4619 25.2813
rtibia 58.8278
rfoot -9.86184 -7.882
rtoes 13.9614
lfemur -102.214 -16.5333 -12.0027
ltibia 31.7513
lfoot 2.11872 -27.2785
ltoes 11.4705
296
root -1.52099 15.917 -3.14919 107.286 31.1277 37.9969
lowerback -1.35032 1.66747 9.44676
upperback 7.88679 1.24955 10.6888
thorax 9.24059 0.886125 6.43594
lowerneck -11.5757 -11.1717 -1.20616
upperneck -2.62188 -15.0705 0.621698
head 1.20507 -7.65429 -0.294992
rclavicle 3.81667e-014 5.88403e-014
rhumerus 54.3286 -21.6589 -42.6458
rradius 23.8144
rwrist -1.18732
rhand -43.8945 22.5961
rfingers 7.12502
rthumb -16.7196 -6.70394
lclavicle 3.81667e-014 5.88403e-014
lhumerus -36.4506 -39.2555 107.796
lradius 78.7936
lwrist -0.828962
lhand -43.4 24.8563
lfingers 7.12502
lthumb -16.2435 54.1958
rfemur -132.313 -26.5139 25.2428
rtibia 58.8482
rfoot -9.7804 -8.11712
rtoes 13.0665
lfemur -102.444 -16.582 -11.955
ltibia 31.847
lfoot 2.2031 -27.3342
ltoes 11.2374
297
root -1.51733 15.9149 -3.1468 107.39 31.1231 38.1203
lowerback -1.46276 1.66417 9.48755
upperback 7.88105 1.22444 10.7337
thorax 9.30434 0.875235 6.46922
lowerneck -11.6578 -11.1768 -1.22823
upperneck -2.57066 -15.0728 0.557393
head 1.23213 -7.65618 -0.318477
rclavicle -4.13472e-014 3.97569e-014
rhumerus 54.3079 -21.7165 -42.6606
rradius 23.8731
rwrist -0.984574
rhand -44.0511 22.7864
rfingers 7.12502
rthumb -16.8703 -6.50082
lclavicle -4.13472e-014 3.97569e-014
lhumerus -36.4282 -39.2825 107.848
lradius 78.8155
lwrist -0.820764
lhand -43.3796 25.0733
lfingers 7.12502
lthumb -16.2239 54.4144
rfemur -132.392 -26.5967 25.3011
rtibia 58.8914
rfoot -9.6957 -8.20587
rtoes 12.5775
lfemur -102.536 -16.6694 -11.942
ltibia 31.9498
lfoot 2.15384 -27.4094
ltoes 10.7915
298
root -1.51404 15.9107 -3.14241 107.37 31.066 38.1802
lowerback -1.44558 1.67639 9.45132
upperback 7.89182 1.24396 10.7642
thorax 9.30396 0.880797 6.52554
lowerneck -11.8114 -11.1779 -1.18646
upperneck -2.4488 -15.0752 0.382993
head 1.28053 -7.6601 -0.391148
rclavicle -2.54444e-014 -1.43125e-014
rhumerus 54.2722 -21.7928 -42.6479
rradius 23.9211
rwrist -0.865184
rhand -44.1618 22.7925
rfingers 7.12502
rthumb -16.9769 -6.48563
lclavicle -2.54444e-014 -1.43125e-014
lhumerus -36.4011 -39.3017 107.929
lradius 78.7734
lwrist -0.831215
lhand -43.3324 25.0302
lfingers 7.12502
lthumb -16.1785 54.3751
rfemur -132.406 -26.6604 25.2945
rtibia 58.9605
rfoot -9.68297 -8.19908
rtoes 12.348
lfemur -102.478 -16.7414 -12.0983
ltibia 32.0151
lfoot 2.00108 -27.5779
ltoes 10.1271
299
root -1.51084 15.9093 -3.13657 107.24 30.992 38.1736
lowerback -1.28765 1.66658 9.40166
upperback 7.91699 1.25752 10.7733
thorax 9.23497 0.883609 6.55632
lowerneck -11.8774 -11.1444 -1.09884
upperneck -2.42885 -15.04 0.230459
head 1.27892 -7.64615 -0.451742
rclavicle 2.54444e-014 6.36111e-015
rhumerus 54.3772 -21.8982 -42.9428
rradius 23.9646
rwrist -0.518108
rhand -44.3703 22.8805
rfingers 7.12502
rthumb -17.1776 -6.38017
lclavicle 2.54444e-014 6.36111e-015
lhumerus -36.4384 -39.2329 107.974
lradius 78.7963
lwrist -0.843533
lhand -43.3367 24.7721
lfingers 7.12502
lthumb -16.1826 54.1166
rfemur -132.258 -26.7096 25.1012
rtibia 59.0291
rfoot -9.74155 -8.26144
rtoes 12.4838
lfemur -102.31 -16.7813 -12.29
ltibia 32.0347
lfoot 2.61362 -27.5457
ltoes 11.8306
300
root -1.50764 15.9158 -3.13089 107.092 30.9791 38.1884
lowerback -1.13796 1.66064 9.42478
upperback 7.9513 1.26946 10.806
thorax 9.18451 0.890063 6.57526
lowerneck -11.8966 -11.1239 -1.07099
upperneck -2.3974 -15.0146 0.157774
head 1.28446 -7.63467 -0.478457
rclavicle -3.18055e-015 -6.52014e-014
rhumerus 54.3704 -21.9522 -43.0358
rradius 24.0644
rwrist -0.303406
rhand -44.7215 22.9227
rfingers 7.12502
rthumb -17.5156 -6.30824
lclavicle -3.18055e-015 -6.52014e-014
lhumerus -36.4713 -39.2355 107.992
lradius 78.8618
lwrist -0.807101
lhand -43.4034 24.7142
lfingers 7.12502
lthumb -16.2468 54.0535
rfemur -131.973 -26.7845 24.8322
rtibia 59.0739
rfoot -9.77349 -8.41099
rtoes 12.9201
lfemur -102.124 -16.8219 -12.3317
ltibia 32.0186
lfoot 3.36761 -27.3864
ltoes 13.6874
301
root -1.50303 15.9217 -3.12771 106.986 30.9634 38.2319
lowerback -1.07008 1.67513 9.47101
upperback 7.95988 1.2959 10.8501
thorax 9.15437 0.90426 6.59853
lowerneck -11.8489 -11.1424 -1.1558
upperneck -2.32784 -15.0264 0.160732
head 1.30602 -7.63867 -0.466107
rclavicle -7.31528e-014 -3.65764e-014
rhumerus 54.2068 -21.959 -42.8913
rradius 24.2081
rwrist -0.32106
rhand -44.997 22.6743
rfingers 7.12502
rthumb -17.7807 -6.53275
lclavicle -7.31528e-014 -3.65764e-014
lhumerus -36.5018 -39.3326 108.058
lradius 78.931
lwrist -0.740622
lhand -43.4293 25.0101
lfingers 7.12502
lthumb -16.2718 54.3473
rfemur -131.77 -26.8675 24.6967
rtibia 59.0963
rfoot -9.79408 -8.46754
rtoes 12.6961
lfemur -101.965 -16.8959 -12.3388
ltibia 31.9821
lfoot 3.4756 -27.3923
ltoes 13.3944
302
root -1.4984 15.9261 -3.12538 106.87 30.8987 38.2553
lowerback -0.978961 1.69016 9.48013
upperback 7.9682 1.32905 10.8711
thorax 9.10816 0.91991 6.61489
lowerneck -11.8689 -11.1612 -1.21368
upperneck -2.21515 -15.0405 0.165439
head 1.35147 -7.64375 -0.463758
rclavicle -9.54166e-014 -4.6118e-014
rhumerus 54.1941 -22.0764 -43.0485
rradius 24.2701
rwrist -0.174321
rhand -45.1861 22.6054
rfingers 7.12502
rthumb -17.9627 -6.58509
lclavicle -9.54166e-014 -4.6118e-014
lhumerus -36.5197 -39.4154 108.132
lradius 78.9748
lwrist -0.669227
lhand -43.2752 25.3434
lfingers 7.12502
lthumb -16.1234 54.6927
rfemur -131.62 -26.9353 24.6008
rtibia 59.1
rfoot -9.81943 -8.45253
rtoes 12.0639
lfemur -101.744 -16.9537 -12.6054
ltibia 31.9462
lfoot 3.61617 -27.593
ltoes 13.1253
